Nightstalker 2009 720p BRRip H264.mp4

File Size
Format : MPEG-4
Format profile : Base Media
Codec ID : isom
File size : 1.63 GiB
Duration : 1h 21mn
Overall bit rate : 2 874 Kbps

Video
ID : 1
Format : AVC
Format/Info : Advanced Video Codec
Format profile : High@L4.1
Format settings, CABAC : Yes
Format settings, ReFrames : 3 frames
Codec ID : avc1
Codec ID/Info : Advanced Video Coding
Duration : 1h 21mn
Bit rate mode : Variable
Bit rate : 2 749 Kbps
Maximum bit rate : 10.3 Mbps
Width : 1 280 pixels
Height : 712 pixels
Display aspect ratio : 16:9
Frame rate mode : Constant
Frame rate : 29.970 fps
Resolution : 24 bits
Colorimetry : 4:2:0
Scan type : Progressive
Bits/(Pixel*Frame) : 0.101
Stream size : 1.56 GiB (95%)

Audio 
ID : 2
Format : AAC
Format/Info : Advanced Audio Codec
Format version : Version 4
Format profile : LC
Format settings, SBR : No
Codec ID : 40
Duration : 1h 21mn
Bit rate mode : Variable
Bit rate : 128 Kbps
Maximum bit rate : 133 Kbps
Channel(s) : 2 channels
Channel positions : L R
Sampling rate : 48.0 KHz
Resolution : 16 bits
Stream size : 74.6 MiB (4%)

English SRT : -----

Language : English



 
http://www.imdb.com/title/tt1345503/



Release Date: 8 September 2009 (USA) 

Genre: Horror | Thriller 

Plot: A chilling story based on the real-life exploits of the man who terrorized California during the 1980s.

Cast: 
Adolph Cortez 
Elissa Dowling ... Heather
Jamie Bernadette ... Caroline
Jeff Dylan Graham ... Jim
Cassandra Church 
Michael Frost ... Detective 2
Jason Harrold ... Lead Detective
Samm Hill ... Detective








================================== 
http://thepiratebay.org/user/hiest
==================================








Screenshots:
 
http://postimg.com/image/22000/21337.jpg
 
http://postimg.com/image/22000/21338.jpg